<svg width="177" height="177" viewBox="0 0 177 177" fill="none" xmlns="http://www.w3.org/2000/svg">
<rect x="0.132416" y="0.132416" width="176.868" height="176.868" fill="#385BBA"/>
<path fill-rule="evenodd" clip-rule="evenodd" d="M127.208 94.6775C127.45 92.8164 127.575 90.9154 127.575 88.9833C127.575 66.272 110.297 47.8608 88.9828 47.8608C67.6691 47.8608 50.3909 66.272 50.3909 88.9833C50.3909 111.695 67.6691 130.106 88.9828 130.106C105.069 130.106 118.857 119.618 124.652 104.709L108.945 102.353C105.37 108.293 97.775 112.392 88.9834 112.392C76.7542 112.392 66.8405 104.461 66.8405 94.6773H88.9834H111.126C111.126 94.6774 111.126 94.6775 111.126 94.6775L111.126 94.6775H127.208ZM88.9834 82.0245H111.126C111.126 72.2411 101.213 64.3101 88.9834 64.3101C76.7542 64.3101 66.8405 72.2411 66.8405 82.0245H88.9834Z" fill="white"/>
<rect x="83.2888" y="23.8197" width="12.6531" height="25.3062" fill="white"/>
<rect x="83.2888" y="128.84" width="12.6531" height="25.3062" fill="white"/>
</svg>
