<svg width="42" height="42" viewBox="0 0 42 42" fill="none" xmlns="http://www.w3.org/2000/svg">
<rect width="41.1324" height="41.1324" fill="#003C80"/>
<path fill-rule="evenodd" clip-rule="evenodd" d="M29.5527 21.9874C29.609 21.5546 29.638 21.1125 29.638 20.6632C29.638 15.3814 25.6198 11.0997 20.6631 11.0997C15.7064 11.0997 11.6881 15.3814 11.6881 20.6632C11.6881 25.945 15.7064 30.2267 20.6631 30.2267C24.4042 30.2267 27.6106 27.7876 28.9584 24.3205L25.3055 23.7726C24.4741 25.1538 22.7078 26.1071 20.6632 26.1071C17.8192 26.1071 15.5137 24.2626 15.5137 21.9874H20.6632H25.8128C25.8128 21.9874 25.8128 21.9874 25.8128 21.9875L25.8128 21.9874H29.5527ZM20.6632 19.0448H25.8128C25.8128 16.7696 23.5073 14.9252 20.6632 14.9252C17.8192 14.9252 15.5137 16.7696 15.5137 19.0448H20.6632Z" fill="white"/>
<rect x="19.3389" y="5.50879" width="2.94261" height="5.88521" fill="white"/>
<rect x="19.3389" y="29.9324" width="2.94261" height="5.88521" fill="white"/>
</svg>
