<svg width="503" height="103" viewBox="0 0 503 103" fill="none" xmlns="http://www.w3.org/2000/svg">
<path fill-rule="evenodd" clip-rule="evenodd" d="M60.71 56C60.9012 54.5292 61 53.0269 61 51.5C61 33.5507 47.3447 19 30.5 19C13.6553 19 0 33.5507 0 51.5C0 69.4493 13.6553 84 30.5 84C43.2135 84 54.1102 75.7113 58.6903 63.9286L46.2762 62.0664C43.4507 66.7605 37.4483 70 30.5 70C20.835 70 13 63.732 13 56H30.5H48H60.71ZM30.5 46H48C48 38.268 40.165 32 30.5 32C20.835 32 13 38.268 13 46H30.5Z" fill="white"/>
<rect x="26" width="10" height="20" fill="white"/>
<rect x="26" y="83" width="10" height="20" fill="white"/>
<path d="M92.6722 76.5496C88.2758 76.5496 84.3503 75.6336 80.896 73.8018C77.494 71.9176 74.8247 69.353 72.8881 66.1079C70.9516 62.8629 69.9833 59.173 69.9833 55.0383C69.9833 50.8512 70.9516 47.1613 72.8881 43.9686C74.8247 40.7236 77.494 38.1851 80.896 36.3533C84.3503 34.5214 88.2758 33.6055 92.6722 33.6055C96.7547 33.6055 100.34 34.4429 103.428 36.1178C106.568 37.7403 108.95 40.1478 110.572 43.3405L103.035 47.737C101.779 45.7481 100.235 44.2826 98.4033 43.3405C96.6238 42.3984 94.6873 41.9274 92.5937 41.9274C90.1861 41.9274 88.0141 42.4508 86.0775 43.4975C84.141 44.5443 82.6232 46.0621 81.524 48.051C80.4249 49.9876 79.8754 52.3166 79.8754 55.0383C79.8754 57.7599 80.4249 60.1151 81.524 62.104C82.6232 64.0406 84.141 65.5322 86.0775 66.579C88.0141 67.6258 90.1861 68.1492 92.5937 68.1492C94.6873 68.1492 96.6238 67.6781 98.4033 66.736C100.235 65.7939 101.779 64.3284 103.035 62.3395L110.572 66.736C108.95 69.8763 106.568 72.3101 103.428 74.0373C100.34 75.7121 96.7547 76.5496 92.6722 76.5496ZM137.284 76.5496C132.992 76.5496 129.171 75.6336 125.822 73.8018C122.472 71.9176 119.829 69.353 117.892 66.1079C115.956 62.8629 114.988 59.173 114.988 55.0383C114.988 50.8512 115.956 47.1613 117.892 43.9686C119.829 40.7236 122.472 38.1851 125.822 36.3533C129.171 34.5214 132.992 33.6055 137.284 33.6055C141.628 33.6055 145.475 34.5214 148.825 36.3533C152.227 38.1851 154.87 40.6974 156.754 43.8901C158.691 47.0828 159.659 50.7988 159.659 55.0383C159.659 59.173 158.691 62.8629 156.754 66.1079C154.87 69.353 152.227 71.9176 148.825 73.8018C145.475 75.6336 141.628 76.5496 137.284 76.5496ZM137.284 68.1492C139.692 68.1492 141.837 67.6258 143.722 66.579C145.606 65.5322 147.071 64.0144 148.118 62.0255C149.217 60.0366 149.767 57.7076 149.767 55.0383C149.767 52.3166 149.217 49.9876 148.118 48.051C147.071 46.0621 145.606 44.5443 143.722 43.4975C141.837 42.4508 139.718 41.9274 137.363 41.9274C134.955 41.9274 132.809 42.4508 130.925 43.4975C129.093 44.5443 127.627 46.0621 126.528 48.051C125.429 49.9876 124.88 52.3166 124.88 55.0383C124.88 57.7076 125.429 60.0366 126.528 62.0255C127.627 64.0144 129.093 65.5322 130.925 66.579C132.809 67.6258 134.929 68.1492 137.284 68.1492ZM192.831 33.6055C196.181 33.6055 199.164 34.2597 201.781 35.5682C204.45 36.8767 206.544 38.8917 208.062 41.6133C209.58 44.2826 210.338 47.737 210.338 51.9764V76H200.525V53.2326C200.525 49.5165 199.635 46.7425 197.856 44.9107C196.128 43.0788 193.695 42.1629 190.554 42.1629C188.251 42.1629 186.21 42.6339 184.431 43.576C182.651 44.5181 181.264 45.9313 180.27 47.8155C179.328 49.6474 178.857 51.9764 178.857 54.8027V76H169.043V34.0765H178.386V45.3817L176.737 41.9274C178.202 39.2581 180.322 37.2169 183.096 35.8037C185.922 34.3382 189.167 33.6055 192.831 33.6055ZM241.706 76.5496C237.414 76.5496 233.594 75.6336 230.244 73.8018C226.894 71.9176 224.251 69.353 222.315 66.1079C220.378 62.8629 219.41 59.173 219.41 55.0383C219.41 50.8512 220.378 47.1613 222.315 43.9686C224.251 40.7236 226.894 38.1851 230.244 36.3533C233.594 34.5214 237.414 33.6055 241.706 33.6055C246.05 33.6055 249.897 34.5214 253.247 36.3533C256.649 38.1851 259.292 40.6974 261.176 43.8901C263.113 47.0828 264.081 50.7988 264.081 55.0383C264.081 59.173 263.113 62.8629 261.176 66.1079C259.292 69.353 256.649 71.9176 253.247 73.8018C249.897 75.6336 246.05 76.5496 241.706 76.5496ZM241.706 68.1492C244.114 68.1492 246.26 67.6258 248.144 66.579C250.028 65.5322 251.494 64.0144 252.54 62.0255C253.64 60.0366 254.189 57.7076 254.189 55.0383C254.189 52.3166 253.64 49.9876 252.54 48.051C251.494 46.0621 250.028 44.5443 248.144 43.4975C246.26 42.4508 244.14 41.9274 241.785 41.9274C239.377 41.9274 237.231 42.4508 235.347 43.4975C233.515 44.5443 232.05 46.0621 230.951 48.051C229.851 49.9876 229.302 52.3166 229.302 55.0383C229.302 57.7076 229.851 60.0366 230.951 62.0255C232.05 64.0144 233.515 65.5322 235.347 66.579C237.231 67.6258 239.351 68.1492 241.706 68.1492ZM326.38 33.6055C329.73 33.6055 332.687 34.2597 335.251 35.5682C337.868 36.8767 339.91 38.8917 341.375 41.6133C342.841 44.2826 343.573 47.737 343.573 51.9764V76H333.76V53.2326C333.76 49.5165 332.949 46.7425 331.326 44.9107C329.703 43.0788 327.374 42.1629 324.339 42.1629C322.193 42.1629 320.282 42.6339 318.608 43.576C316.985 44.5181 315.703 45.9051 314.761 47.737C313.871 49.5689 313.426 51.8979 313.426 54.7242V76H303.613V53.2326C303.613 49.5165 302.801 46.7425 301.179 44.9107C299.556 43.0788 297.227 42.1629 294.192 42.1629C292.046 42.1629 290.135 42.6339 288.46 43.576C286.838 44.5181 285.556 45.9051 284.614 47.737C283.724 49.5689 283.279 51.8979 283.279 54.7242V76H273.465V34.0765H282.808V45.2247L281.159 41.9274C282.572 39.2057 284.614 37.1384 287.283 35.7252C290.004 34.3121 293.092 33.6055 296.547 33.6055C300.472 33.6055 303.874 34.5738 306.753 36.5103C309.684 38.4468 311.62 41.3778 312.563 45.3032L308.716 43.9686C310.076 40.8283 312.327 38.316 315.467 36.4318C318.608 34.5476 322.245 33.6055 326.38 33.6055ZM356.114 76V34.0765H365.927V76H356.114ZM361.06 27.1678C359.228 27.1678 357.71 26.5921 356.506 25.4406C355.355 24.2892 354.779 22.9022 354.779 21.2797C354.779 19.6048 355.355 18.2178 356.506 17.1187C357.71 15.9673 359.228 15.3915 361.06 15.3915C362.892 15.3915 364.383 15.9411 365.535 17.0402C366.739 18.087 367.34 19.4216 367.34 21.0441C367.34 22.7713 366.765 24.2368 365.613 25.4406C364.462 26.5921 362.944 27.1678 361.06 27.1678ZM396.551 76.5496C392.52 76.5496 388.883 75.6598 385.638 73.8803C382.445 72.0484 379.933 69.5361 378.101 66.3435C376.269 63.1508 375.353 59.3824 375.353 55.0383C375.353 50.6941 376.269 46.9257 378.101 43.7331C379.933 40.5404 382.445 38.0543 385.638 36.2748C388.883 34.4952 392.52 33.6055 396.551 33.6055C400.057 33.6055 403.198 34.3906 405.972 35.9607C408.745 37.4786 410.944 39.8076 412.566 42.948C414.189 46.0883 415 50.1184 415 55.0383C415 59.9058 414.215 63.9359 412.645 67.1286C411.075 70.2689 408.902 72.6241 406.129 74.1943C403.355 75.7645 400.162 76.5496 396.551 76.5496ZM397.728 68.1492C400.083 68.1492 402.177 67.6258 404.009 66.579C405.893 65.5322 407.385 64.0144 408.484 62.0255C409.635 60.0366 410.211 57.7076 410.211 55.0383C410.211 52.3166 409.635 49.9876 408.484 48.051C407.385 46.0621 405.893 44.5443 404.009 43.4975C402.177 42.4508 400.083 41.9274 397.728 41.9274C395.373 41.9274 393.253 42.4508 391.369 43.4975C389.537 44.5443 388.045 46.0621 386.894 48.051C385.795 49.9876 385.245 52.3166 385.245 55.0383C385.245 57.7076 385.795 60.0366 386.894 62.0255C388.045 64.0144 389.537 65.5322 391.369 66.579C393.253 67.6258 395.373 68.1492 397.728 68.1492ZM410.446 76V66.1079L410.839 54.9598L410.054 43.8116V17.7468H419.789V76H410.446ZM432.705 76V34.0765H442.519V76H432.705ZM437.651 27.1678C435.82 27.1678 434.302 26.5921 433.098 25.4406C431.947 24.2892 431.371 22.9022 431.371 21.2797C431.371 19.6048 431.947 18.2178 433.098 17.1187C434.302 15.9673 435.82 15.3915 437.651 15.3915C439.483 15.3915 440.975 15.9411 442.126 17.0402C443.33 18.087 443.932 19.4216 443.932 21.0441C443.932 22.7713 443.356 24.2368 442.205 25.4406C441.054 26.5921 439.536 27.1678 437.651 27.1678ZM479.187 33.6055C482.537 33.6055 485.52 34.2597 488.137 35.5682C490.807 36.8767 492.9 38.8917 494.418 41.6133C495.936 44.2826 496.695 47.737 496.695 51.9764V76H486.881V53.2326C486.881 49.5165 485.991 46.7425 484.212 44.9107C482.485 43.0788 480.051 42.1629 476.911 42.1629C474.608 42.1629 472.566 42.6339 470.787 43.576C469.007 44.5181 467.62 45.9313 466.626 47.8155C465.684 49.6474 465.213 51.9764 465.213 54.8027V76H455.399V34.0765H464.742V45.3817L463.093 41.9274C464.559 39.2581 466.678 37.2169 469.452 35.8037C472.279 34.3382 475.524 33.6055 479.187 33.6055Z" fill="white"/>
</svg>
