<svg width="19" height="19" viewBox="0 0 19 19" fill="none" xmlns="http://www.w3.org/2000/svg">
<path d="M5.35567 16.6067C4.95295 16.6067 4.60832 16.4634 4.32178 16.1769C4.03475 15.8898 3.89124 15.545 3.89124 15.1422V7.82006C3.89124 7.41734 4.03475 7.07247 4.32178 6.78544C4.60832 6.4989 4.95295 6.35563 5.35567 6.35563H6.08789V4.89119C6.08789 3.87829 6.44497 3.01476 7.15912 2.3006C7.87279 1.58694 8.73607 1.2301 9.74898 1.2301C10.7619 1.2301 11.6254 1.58694 12.3396 2.3006C13.0532 3.01476 13.4101 3.87829 13.4101 4.89119V6.35563H14.1423C14.545 6.35563 14.8899 6.4989 15.1769 6.78544C15.4634 7.07247 15.6067 7.41734 15.6067 7.82006V15.1422C15.6067 15.545 15.4634 15.8898 15.1769 16.1769C14.8899 16.4634 14.545 16.6067 14.1423 16.6067H5.35567ZM9.74898 12.9456C10.1517 12.9456 10.4966 12.8023 10.7836 12.5158C11.0701 12.2287 11.2134 11.8839 11.2134 11.4811C11.2134 11.0784 11.0701 10.7336 10.7836 10.4465C10.4966 10.16 10.1517 10.0167 9.74898 10.0167C9.34626 10.0167 9.00163 10.16 8.71508 10.4465C8.42806 10.7336 8.28454 11.0784 8.28454 11.4811C8.28454 11.8839 8.42806 12.2287 8.71508 12.5158C9.00163 12.8023 9.34626 12.9456 9.74898 12.9456ZM7.55232 6.35563H11.9456V4.89119C11.9456 4.28101 11.7321 3.76235 11.3049 3.33523C10.8778 2.9081 10.3592 2.69454 9.74898 2.69454C9.13879 2.69454 8.62014 2.9081 8.19301 3.33523C7.76589 3.76235 7.55232 4.28101 7.55232 4.89119V6.35563Z" fill="#003C80"/>
</svg>
