<svg width="18" height="19" viewBox="0 0 18 19" fill="none" xmlns="http://www.w3.org/2000/svg">
<path d="M9.18831 3.60242C9.96509 3.60242 10.7101 3.91099 11.2593 4.46026C11.8086 5.00953 12.1172 5.7545 12.1172 6.53129C12.1172 7.30807 11.8086 8.05304 11.2593 8.60231C10.7101 9.15158 9.96509 9.46016 9.18831 9.46016C8.41152 9.46016 7.66655 9.15158 7.11728 8.60231C6.56801 8.05304 6.25944 7.30807 6.25944 6.53129C6.25944 5.7545 6.56801 5.00953 7.11728 4.46026C7.66655 3.91099 8.41152 3.60242 9.18831 3.60242ZM9.18831 10.9246C12.4247 10.9246 15.046 12.2353 15.046 13.8535V15.3179H3.33057V13.8535C3.33057 12.2353 5.95191 10.9246 9.18831 10.9246Z" fill="#003C80"/>
</svg>
